<svg width="101" height="100" viewBox="0 0 101 100" fill="none" xmlns="http://www.w3.org/2000/svg">
<path d="M40.9662 89.1L40.9658 89.0998L19.2586 72.8506C15.3419 69.903 12.9996 65.2173 12.9996 60.3334V7.83337H87.6662V60.3334C87.6662 65.2173 85.3239 69.903 81.4072 72.8506L59.7 89.0998L59.6996 89.1C56.9555 91.1581 53.6448 92.2084 50.3329 92.2084C47.021 92.2084 43.7103 91.1581 40.9662 89.1ZM18.7496 13.0417H18.2496V13.5417V60.2917C18.2496 63.5351 19.8256 66.6389 22.4047 68.6059L22.4083 68.6087L44.1162 84.8584C47.794 87.6167 52.9134 87.6167 56.5912 84.8584L78.2993 68.6087L78.3029 68.6059C80.8819 66.6389 82.4579 63.5351 82.4579 60.2917V13.5417V13.0417H81.9579H18.7496Z" fill="#999999" stroke="#999999"/>
<path d="M92 13.0417H8.66663C7.23444 13.0417 6.04163 11.8489 6.04163 10.4167C6.04163 8.98447 7.23443 7.79166 8.66663 7.79166H92C93.4321 7.79166 94.625 8.98447 94.625 10.4167C94.625 11.8489 93.4321 13.0417 92 13.0417Z" fill="#999999" stroke="#999999"/>
<path d="M67 36.4583H33.6666C31.9583 36.4583 30.5416 35.0417 30.5416 33.3333C30.5416 31.625 31.9583 30.2083 33.6666 30.2083H67C68.7083 30.2083 70.125 31.625 70.125 33.3333C70.125 35.0417 68.7083 36.4583 67 36.4583Z" fill="#999999"/>
<path d="M67 57.2917H33.6666C31.9583 57.2917 30.5416 55.875 30.5416 54.1667C30.5416 52.4583 31.9583 51.0417 33.6666 51.0417H67C68.7083 51.0417 70.125 52.4583 70.125 54.1667C70.125 55.875 68.7083 57.2917 67 57.2917Z" fill="#999999"/>
</svg>
