<svg width="24" height="24" viewBox="0 0 24 24" fill="none" xmlns="http://www.w3.org/2000/svg">
<path d="M12 22.25C6.34614 22.25 1.75 17.6539 1.75 12C1.75 6.34614 6.34614 1.75 12 1.75C17.6539 1.75 22.25 6.34614 22.25 12C22.25 17.6539 17.6539 22.25 12 22.25ZM12 2.25C6.62386 2.25 2.25 6.62386 2.25 12C2.25 17.3761 6.62386 21.75 12 21.75C17.3761 21.75 21.75 17.3761 21.75 12C21.75 6.62386 17.3761 2.25 12 2.25Z" fill="#171515" stroke="#171515"/>
<path d="M9.16999 15.58C8.97999 15.58 8.78999 15.51 8.63999 15.36C8.34999 15.07 8.34999 14.59 8.63999 14.3L14.3 8.63999C14.59 8.34999 15.07 8.34999 15.36 8.63999C15.65 8.92999 15.65 9.40998 15.36 9.69998L9.69998 15.36C9.55998 15.51 9.35999 15.58 9.16999 15.58Z" fill="#171515"/>
<path d="M14.83 15.58C14.64 15.58 14.45 15.51 14.3 15.36L8.63999 9.69998C8.34999 9.40998 8.34999 8.92999 8.63999 8.63999C8.92999 8.34999 9.40998 8.34999 9.69998 8.63999L15.36 14.3C15.65 14.59 15.65 15.07 15.36 15.36C15.21 15.51 15.02 15.58 14.83 15.58Z" fill="#171515"/>
</svg>
