<svg width="24" height="24" viewBox="0 0 24 24" fill="none" xmlns="http://www.w3.org/2000/svg">
<path d="M10.1237 21.481L10.1148 21.4778L10.1059 21.4748C9.09577 21.1435 8.44416 20.0122 8.66849 18.9867L8.67175 18.9718L8.6741 18.9568L9.1641 15.8068L9.16413 15.8068L9.16501 15.8006C9.18175 15.6835 9.20207 15.3972 8.98633 15.1506L8.97536 15.1381L8.96359 15.1263C8.81687 14.9796 8.61841 14.8999 8.41004 14.8999H4.41004C3.56937 14.8999 2.88252 14.551 2.48884 13.992L2.4877 13.9904C2.10371 13.4497 2.00931 12.715 2.27994 11.9708L2.28263 11.9634L2.28509 11.9559L4.67509 4.67586L4.68035 4.65985L4.68451 4.64353C4.99418 3.42996 6.33272 2.3999 7.72004 2.3999H11.52C11.7591 2.3999 12.1599 2.43736 12.5704 2.54872C12.9878 2.66194 13.3596 2.83655 13.5965 3.07346L13.6191 3.09608L13.6444 3.11563L16.2785 5.14986L15.9705 5.54825L13.2875 3.47111C13.0799 3.2763 12.7837 3.1413 12.5061 3.05412C12.2031 2.95897 11.8551 2.8999 11.52 2.8999H7.72004C7.1429 2.8999 6.57353 3.12735 6.12508 3.45926C5.68428 3.78551 5.30892 4.25141 5.16964 4.79019L2.75738 12.1167C2.56223 12.659 2.57147 13.2409 2.90365 13.7012C3.24182 14.1761 3.81577 14.3999 4.42004 14.3999H8.42004C8.79702 14.3999 9.13867 14.5585 9.37252 14.8277L9.37315 14.8285C9.61286 15.1034 9.72457 15.4745 9.66568 15.875C9.6656 15.8755 9.66552 15.8761 9.66544 15.8766L9.16795 19.0704C9.00242 19.8841 9.533 20.7428 10.2933 21.0013C10.6685 21.1391 11.0675 21.0978 11.3857 20.9917C11.7001 20.8869 12.0218 20.6898 12.2121 20.4132L12.2121 20.4132L12.215 20.4088L16.0351 14.7253L16.4472 15.0045L12.6251 20.691L12.6249 20.6912C12.259 21.2361 11.5347 21.5999 10.8 21.5999C10.5668 21.5999 10.3358 21.5596 10.1237 21.481Z" fill="#171515" stroke="#171515"/>
<path d="M19.62 18.1H18.62C16.77 18.1 15.87 17.23 15.87 15.45V5.65C15.87 3.87 16.77 3 18.62 3H19.62C21.47 3 22.37 3.87 22.37 5.65V15.45C22.37 17.23 21.47 18.1 19.62 18.1ZM18.62 4.5C17.53 4.5 17.37 4.76 17.37 5.65V15.45C17.37 16.34 17.53 16.6 18.62 16.6H19.62C20.71 16.6 20.87 16.34 20.87 15.45V5.65C20.87 4.76 20.71 4.5 19.62 4.5H18.62Z" fill="#292D32"/>
</svg>
