<svg width="34" height="34" viewBox="0 0 34 34" fill="none" xmlns="http://www.w3.org/2000/svg">
<path d="M14.7785 16.9999C14.7785 15.7727 15.7731 14.7775 17.0004 14.7775C18.2277 14.7775 19.2229 15.7727 19.2229 16.9999C19.2229 18.2272 18.2277 19.2223 17.0004 19.2223C15.7731 19.2223 14.7785 18.2272 14.7785 16.9999ZM13.577 16.9999C13.577 18.8906 15.1097 20.4232 17.0004 20.4232C18.8912 20.4232 20.4238 18.8906 20.4238 16.9999C20.4238 15.1093 18.8912 13.5767 17.0004 13.5767C15.1097 13.5767 13.577 15.1093 13.577 16.9999ZM19.7593 13.4409C19.7592 13.5992 19.8061 13.7538 19.894 13.8854C19.9818 14.017 20.1067 14.1196 20.2529 14.1802C20.3991 14.2408 20.5599 14.2567 20.7151 14.2259C20.8703 14.1951 21.0129 14.119 21.1248 14.0072C21.2368 13.8953 21.313 13.7528 21.3439 13.5976C21.3749 13.4425 21.3591 13.2816 21.2986 13.1354C21.2381 12.9892 21.1356 12.8642 21.0041 12.7763C20.8726 12.6883 20.7179 12.6413 20.5597 12.6413H20.5593C20.3472 12.6414 20.1439 12.7256 19.9939 12.8756C19.8439 13.0255 19.7595 13.2288 19.7593 13.4409ZM14.307 22.4264C13.657 22.3968 13.3037 22.2886 13.0689 22.1971C12.7576 22.0759 12.5356 21.9316 12.3021 21.6984C12.0686 21.4653 11.924 21.2434 11.8034 20.9321C11.7118 20.6975 11.6036 20.3441 11.574 19.6941C11.5417 18.9914 11.5353 18.7803 11.5353 17C11.5353 15.2197 11.5422 15.0091 11.574 14.3058C11.6036 13.6559 11.7127 13.3032 11.8034 13.0678C11.9245 12.7566 12.0689 12.5345 12.3021 12.301C12.5352 12.0675 12.7571 11.923 13.0689 11.8023C13.3036 11.7108 13.657 11.6025 14.307 11.573C15.0097 11.5407 15.2208 11.5342 17.0004 11.5342C18.78 11.5342 18.9913 11.5412 19.6947 11.573C20.3447 11.6026 20.6974 11.7117 20.9327 11.8023C21.244 11.923 21.4661 12.0678 21.6996 12.301C21.9331 12.5342 22.0771 12.7566 22.1983 13.0678C22.2898 13.3025 22.3981 13.6559 22.4276 14.3058C22.46 15.0091 22.4664 15.2197 22.4664 17C22.4664 18.7803 22.46 18.9908 22.4276 19.6941C22.398 20.3441 22.2892 20.6974 22.1983 20.9321C22.0771 21.2434 21.9328 21.4655 21.6996 21.6984C21.4664 21.9314 21.244 22.0759 20.9327 22.1971C20.6981 22.2886 20.3447 22.3969 19.6947 22.4264C18.9919 22.4587 18.7808 22.4652 17.0004 22.4652C15.22 22.4652 15.0095 22.4587 14.307 22.4264ZM14.2518 10.3736C13.5421 10.4059 13.0571 10.5185 12.6335 10.6833C12.1949 10.8535 11.8236 11.0818 11.4525 11.4522C11.0815 11.8227 10.8537 12.1946 10.6835 12.6332C10.5187 13.057 10.4062 13.5417 10.3739 14.2514C10.341 14.9622 10.3335 15.1895 10.3335 16.9999C10.3335 18.8104 10.341 19.0376 10.3739 19.7485C10.4062 20.4582 10.5187 20.9429 10.6835 21.3666C10.8537 21.805 11.0815 22.1773 11.4525 22.5476C11.8235 22.9179 12.1949 23.1459 12.6335 23.3166C13.0579 23.4814 13.5421 23.5939 14.2518 23.6262C14.963 23.6585 15.1899 23.6666 17.0004 23.6666C18.811 23.6666 19.0382 23.6591 19.7491 23.6262C20.4589 23.5939 20.9435 23.4814 21.3673 23.3166C21.8057 23.1459 22.1773 22.9181 22.5483 22.5476C22.9194 22.1771 23.1466 21.805 23.3173 21.3666C23.4821 20.9429 23.5952 20.4582 23.627 19.7485C23.6593 19.0371 23.6668 18.8104 23.6668 16.9999C23.6668 15.1895 23.6593 14.9622 23.627 14.2514C23.5947 13.5416 23.4821 13.0567 23.3173 12.6332C23.1466 12.1949 22.9188 11.8233 22.5483 11.4522C22.1779 11.0812 21.8057 10.8535 21.3679 10.6833C20.9435 10.5185 20.4588 10.4054 19.7496 10.3736C19.0388 10.3413 18.8115 10.3333 17.001 10.3333C15.1904 10.3333 14.963 10.3408 14.2518 10.3736Z" fill="#999999"/>
<rect x="0.5" y="0.5" width="33" height="33" rx="16.5" stroke="#999999"/>
</svg>
