<svg width="24" height="24" viewBox="0 0 24 24" fill="none" xmlns="http://www.w3.org/2000/svg">
<path d="M10.4035 20.9265L10.3809 20.9038L10.3556 20.8843L7.72153 18.85L8.02953 18.4517L10.716 20.5315C10.9227 20.7195 11.218 20.8517 11.496 20.9377C11.7977 21.0309 12.145 21.09 12.48 21.09H16.28C16.8571 21.09 17.4265 20.8626 17.8749 20.5307C18.3157 20.2044 18.6911 19.7385 18.8304 19.1997L21.2427 11.8732C21.4378 11.3309 21.4286 10.7491 21.0964 10.2887C20.7582 9.81378 20.1843 9.59001 19.58 9.59001H15.58C15.203 9.59001 14.8614 9.43144 14.6275 9.16216L14.6269 9.16144C14.3872 8.8865 14.2755 8.5155 14.3343 8.11502L14.8321 4.91951C14.9977 4.10522 14.4663 3.24598 13.7052 2.98805C13.3276 2.85167 12.9296 2.8913 12.6099 2.9984C12.2948 3.10398 11.977 3.30174 11.788 3.57674L11.7879 3.57673L11.785 3.58109L7.96339 9.26691L7.55441 8.99315L11.375 3.30892L11.3753 3.30837C11.8762 2.56104 13.0107 2.19029 13.8725 2.51745L13.8833 2.52153L13.8942 2.5251C14.9043 2.85642 15.5559 3.98767 15.3315 5.01316L15.3283 5.02807L15.3259 5.04315L14.8359 8.19315L14.8359 8.19315L14.835 8.19929C14.8183 8.31643 14.798 8.60269 15.0137 8.84926L15.0247 8.86179L15.0364 8.87356C15.1832 9.02028 15.3816 9.10001 15.59 9.10001H19.59C20.4307 9.10001 21.1175 9.44888 21.5112 10.0079L21.5123 10.0095C21.8963 10.5502 21.9907 11.2849 21.7201 12.0291L21.7174 12.0365L21.7149 12.044L19.3249 19.324L19.3197 19.3401L19.3155 19.3564C19.0056 20.5707 17.6765 21.6 16.28 21.6H12.48C12.2409 21.6 11.8402 21.5625 11.4296 21.4512C11.0122 21.338 10.6404 21.1634 10.4035 20.9265Z" fill="#171515" stroke="#171515"/>
<path d="M5.38 21H4.38C2.53 21 1.63 20.13 1.63 18.35V8.54999C1.63 6.76999 2.53 5.89999 4.38 5.89999H5.38C7.23 5.89999 8.13 6.76999 8.13 8.54999V18.35C8.13 20.13 7.23 21 5.38 21ZM4.38 7.39999C3.29 7.39999 3.13001 7.65999 3.13001 8.54999V18.35C3.13001 19.24 3.29 19.5 4.38 19.5H5.38C6.47001 19.5 6.63 19.24 6.63 18.35V8.54999C6.63 7.65999 6.47001 7.39999 5.38 7.39999H4.38Z" fill="#171515"/>
</svg>
