<svg width="24" height="24" viewBox="0 0 24 24" fill="none" xmlns="http://www.w3.org/2000/svg">
<path d="M10.4035 20.9264L10.3809 20.9038L10.3556 20.8843L7.72153 18.85L8.02953 18.4516L10.716 20.5315C10.9227 20.7195 11.218 20.8517 11.496 20.9377C11.7977 21.0309 12.145 21.09 12.48 21.09H16.28C16.8571 21.09 17.4265 20.8625 17.8749 20.5306C18.3157 20.2044 18.6911 19.7385 18.8304 19.1997L21.2427 11.8732C21.4378 11.3309 21.4286 10.749 21.0964 10.2887C20.7582 9.81377 20.1843 9.58999 19.58 9.58999H15.58C15.203 9.58999 14.8614 9.43143 14.6275 9.16215L14.6269 9.16142C14.3872 8.88649 14.2755 8.51549 14.3343 8.11501L14.8321 4.9195C14.9977 4.10521 14.4663 3.24597 13.7052 2.98804C13.3276 2.85165 12.9296 2.89129 12.6099 2.99839C12.2948 3.10396 11.977 3.30172 11.788 3.57673L11.7879 3.57671L11.785 3.58107L7.96339 9.26689L7.55441 8.99314L11.375 3.30891L11.3753 3.30836C11.8762 2.56103 13.0107 2.19028 13.8725 2.51744L13.8833 2.52151L13.8942 2.52509C14.9043 2.8564 15.5559 3.98765 15.3315 5.01314L15.3283 5.02805L15.3259 5.04314L14.8359 8.19314L14.8359 8.19313L14.835 8.19928C14.8183 8.31642 14.798 8.60268 15.0137 8.84924L15.0247 8.86177L15.0364 8.87354C15.1832 9.02026 15.3816 9.09999 15.59 9.09999H19.59C20.4307 9.09999 21.1175 9.44886 21.5112 10.0079L21.5123 10.0095C21.8963 10.5502 21.9907 11.2849 21.7201 12.0291L21.7174 12.0365L21.7149 12.044L19.3249 19.324L19.3197 19.34L19.3155 19.3564C19.0056 20.5707 17.6765 21.6 16.28 21.6H12.48C12.2409 21.6 11.8402 21.5625 11.4296 21.4512C11.0122 21.338 10.6404 21.1633 10.4035 20.9264Z" fill="#171515" stroke="#171515"/>
<path d="M5.38 20.9999H4.38C2.53 20.9999 1.63 20.1299 1.63 18.3499V8.5499C1.63 6.7699 2.53 5.8999 4.38 5.8999H5.38C7.23 5.8999 8.13 6.7699 8.13 8.5499V18.3499C8.13 20.1299 7.23 20.9999 5.38 20.9999ZM4.38 7.3999C3.29 7.3999 3.13001 7.6599 3.13001 8.5499V18.3499C3.13001 19.2399 3.29 19.4999 4.38 19.4999H5.38C6.47001 19.4999 6.63 19.2399 6.63 18.3499V8.5499C6.63 7.6599 6.47001 7.3999 5.38 7.3999H4.38Z" fill="#292D32"/>
</svg>
