<svg width="24" height="24" viewBox="0 0 24 24" fill="none" xmlns="http://www.w3.org/2000/svg">
<path d="M5 21.37C4.38737 21.37 3.78615 21.139 3.32356 20.6764C2.87718 20.2301 2.63 19.6372 2.63 19C2.63 18.3628 2.87718 17.7699 3.32356 17.3236L16.3236 4.32355C17.2483 3.39881 18.7517 3.39881 19.6765 4.32355C20.1228 4.76993 20.37 5.36281 20.37 6C20.37 6.63718 20.1228 7.23007 19.6765 7.67644L6.67645 20.6764C6.21386 21.139 5.61264 21.37 5 21.37ZM16.6765 4.67644L17.03 5.03L16.6765 4.67644L3.67645 17.6764C3.32181 18.0311 3.13 18.4986 3.13 19C3.13 19.5014 3.32181 19.9689 3.67645 20.3236C4.40171 21.0488 5.5983 21.0488 6.32356 20.3236L19.3236 7.32355C19.6782 6.96891 19.87 6.50137 19.87 6C19.87 5.49862 19.6782 5.03108 19.3236 4.67644C18.9543 4.30719 18.4747 4.13 18 4.13C17.5254 4.13 17.0457 4.30719 16.6765 4.67644Z" fill="#00B709" stroke="#00B709"/>
<path d="M18.01 9.24C17.9454 9.24 17.8848 9.21774 17.8335 9.16645L14.8335 6.16645C14.7388 6.07171 14.7388 5.90829 14.8335 5.81355C14.9282 5.71882 15.0917 5.71882 15.1864 5.81355L18.1864 8.81355C18.2811 8.90829 18.2811 9.07171 18.1864 9.16645C18.1351 9.21774 18.0745 9.24 18.01 9.24Z" fill="#00B709" stroke="#00B709"/>
</svg>
