<svg width="25" height="24" viewBox="0 0 25 24" fill="none" xmlns="http://www.w3.org/2000/svg">
<path d="M21.3335 7.75H3.3335C2.9235 7.75 2.5835 7.41 2.5835 7C2.5835 6.59 2.9235 6.25 3.3335 6.25H21.3335C21.7435 6.25 22.0835 6.59 22.0835 7C22.0835 7.41 21.7435 7.75 21.3335 7.75Z" fill="#FAFAFA"/>
<path d="M21.3335 12.75H3.3335C2.9235 12.75 2.5835 12.41 2.5835 12C2.5835 11.59 2.9235 11.25 3.3335 11.25H21.3335C21.7435 11.25 22.0835 11.59 22.0835 12C22.0835 12.41 21.7435 12.75 21.3335 12.75Z" fill="#FAFAFA"/>
<path d="M21.3335 17.75H3.3335C2.9235 17.75 2.5835 17.41 2.5835 17C2.5835 16.59 2.9235 16.25 3.3335 16.25H21.3335C21.7435 16.25 22.0835 16.59 22.0835 17C22.0835 17.41 21.7435 17.75 21.3335 17.75Z" fill="#FAFAFA"/>
</svg>
