<svg width="101" height="100" viewBox="0 0 101 100" fill="none" xmlns="http://www.w3.org/2000/svg">
<path d="M71.3335 10.125H29.6668C17.1668 10.125 8.8335 18.4583 8.8335 30.9583V55.9583C8.8335 68.4583 17.1668 76.7917 29.6668 76.7917V85.6667C29.6668 89 33.3752 91 36.1252 89.125L54.6668 76.7917H71.3335C83.8335 76.7917 92.1668 68.4583 92.1668 55.9583V30.9583C92.1668 18.4583 83.8335 10.125 71.3335 10.125ZM50.5002 60.8333C48.7502 60.8333 47.3752 59.4167 47.3752 57.7083C47.3752 56 48.7502 54.5833 50.5002 54.5833C52.2502 54.5833 53.6252 56 53.6252 57.7083C53.6252 59.4167 52.2502 60.8333 50.5002 60.8333ZM55.7502 43.5417C54.1252 44.625 53.6252 45.3333 53.6252 46.5V47.375C53.6252 49.0833 52.2085 50.5 50.5002 50.5C48.7918 50.5 47.3752 49.0833 47.3752 47.375V46.5C47.3752 41.6667 50.9168 39.2917 52.2502 38.375C53.7918 37.3333 54.2918 36.625 54.2918 35.5417C54.2918 33.4583 52.5835 31.75 50.5002 31.75C48.4168 31.75 46.7085 33.4583 46.7085 35.5417C46.7085 37.25 45.2918 38.6667 43.5835 38.6667C41.8752 38.6667 40.4585 37.25 40.4585 35.5417C40.4585 30 44.9585 25.5 50.5002 25.5C56.0418 25.5 60.5418 30 60.5418 35.5417C60.5418 40.2917 57.0418 42.6667 55.7502 43.5417Z" fill="#00B709"/>
</svg>
