<svg width="100" height="100" viewBox="0 0 100 100" fill="none" xmlns="http://www.w3.org/2000/svg">
<path d="M79.875 27.6666C78.0833 18.625 71.375 14.6666 62.0417 14.6666H25.4583C14.4583 14.6666 7.125 20.1666 7.125 33V54.4583C7.125 63.7083 10.9167 69.125 17.1667 71.4583C18.0833 71.7916 19.0833 72.0833 20.125 72.25C21.7917 72.625 23.5833 72.7916 25.4583 72.7916H62.0833C73.0833 72.7916 80.4167 67.2916 80.4167 54.4583V33C80.4167 31.0416 80.25 29.2916 79.875 27.6666ZM23.0417 50C23.0417 51.7083 21.625 53.125 19.9167 53.125C18.2083 53.125 16.7917 51.7083 16.7917 50V37.5C16.7917 35.7916 18.2083 34.375 19.9167 34.375C21.625 34.375 23.0417 35.7916 23.0417 37.5V50ZM43.75 54.75C37.6667 54.75 32.75 49.8333 32.75 43.75C32.75 37.6666 37.6667 32.75 43.75 32.75C49.8333 32.75 54.75 37.6666 54.75 43.75C54.75 49.8333 49.8333 54.75 43.75 54.75ZM70.6667 50C70.6667 51.7083 69.25 53.125 67.5417 53.125C65.8333 53.125 64.4167 51.7083 64.4167 50V37.5C64.4167 35.7916 65.8333 34.375 67.5417 34.375C69.25 34.375 70.6667 35.7916 70.6667 37.5V50Z" fill="#00B709"/>
<path d="M92.9167 45.5V66.9583C92.9167 79.7916 85.5833 85.3333 74.5417 85.3333H37.9583C34.8333 85.3333 32.0417 84.875 29.625 83.9583C27.6667 83.25 25.9583 82.2083 24.5833 80.875C23.8333 80.1666 24.4167 79.0416 25.4583 79.0416H62.0417C77.4583 79.0416 86.625 69.875 86.625 54.5V33C86.625 32 87.75 31.375 88.4583 32.125C91.2917 35.125 92.9167 39.5 92.9167 45.5Z" fill="#00B709"/>
</svg>
