<svg width="101" height="100" viewBox="0 0 101 100" fill="none" xmlns="http://www.w3.org/2000/svg">
<path d="M89.0417 76.9584L82.1667 78.5834C80.625 78.9584 79.4167 80.1251 79.0834 81.6667L77.625 87.7917C76.8334 91.125 72.5834 92.1667 70.375 89.5417L57.9167 75.2084C56.9167 74.0417 57.4584 72.2084 58.9584 71.8334C66.3334 70.0417 72.9583 65.9167 77.8333 60.0417C78.625 59.0834 80.0417 58.9584 80.9167 59.8334L90.1667 69.0834C93.3334 72.2501 92.2084 76.2084 89.0417 76.9584Z" fill="#00B709"/>
<path d="M11.7502 76.9584L18.6252 78.5834C20.1669 78.9584 21.3752 80.1251 21.7085 81.6667L23.1669 87.7917C23.9585 91.125 28.2085 92.1667 30.4169 89.5417L42.8752 75.2084C43.8752 74.0417 43.3335 72.2084 41.8335 71.8334C34.4585 70.0417 27.8335 65.9167 22.9585 60.0417C22.1669 59.0834 20.7502 58.9584 19.8752 59.8334L10.6252 69.0834C7.45852 72.2501 8.58352 76.2084 11.7502 76.9584Z" fill="#00B709"/>
<path d="M50.5002 8.33337C34.3752 8.33337 21.3335 21.375 21.3335 37.5C21.3335 43.5417 23.1252 49.0834 26.2085 53.7084C30.7085 60.375 37.8335 65.0834 46.1252 66.2917C47.5418 66.5417 49.0002 66.6667 50.5002 66.6667C52.0002 66.6667 53.4585 66.5417 54.8752 66.2917C63.1668 65.0834 70.2918 60.375 74.7918 53.7084C77.8752 49.0834 79.6668 43.5417 79.6668 37.5C79.6668 21.375 66.6252 8.33337 50.5002 8.33337ZM63.2502 36.5834L59.7918 40.0417C59.2085 40.625 58.8752 41.75 59.0835 42.5834L60.0835 46.875C60.8752 50.25 59.0835 51.5834 56.0835 49.7917L51.9168 47.3334C51.1668 46.875 49.9168 46.875 49.1668 47.3334L45.0002 49.7917C42.0002 51.5417 40.2085 50.25 41.0002 46.875L42.0002 42.5834C42.1668 41.7917 41.8752 40.625 41.2918 40.0417L37.7502 36.5834C35.7085 34.5417 36.3752 32.5 39.2085 32.0417L43.6668 31.2917C44.4168 31.1667 45.2918 30.5 45.6252 29.8334L48.0835 24.9167C49.4168 22.25 51.5835 22.25 52.9168 24.9167L55.3752 29.8334C55.7085 30.5 56.5835 31.1667 57.3752 31.2917L61.8335 32.0417C64.6252 32.5 65.2918 34.5417 63.2502 36.5834Z" fill="#00B709"/>
</svg>
