<svg width="101" height="100" viewBox="0 0 101 100" fill="none" xmlns="http://www.w3.org/2000/svg">
<path d="M61.7558 91.8201L61.7568 91.8207C64.4864 93.4504 66.6488 93.9584 68.3338 93.9584C70.2158 93.9584 71.5131 93.2921 72.1683 92.7097L72.1877 92.6924L72.2088 92.6772C72.9539 92.1423 73.9037 91.1882 74.4888 89.5744C75.0743 87.9593 75.3089 85.6435 74.555 82.3624L61.7558 91.8201ZM61.7558 91.8201L52.4224 86.2785L52.4206 86.2774C51.9544 86.0032 51.2768 85.8959 50.6672 85.8959C50.0575 85.8959 49.3799 86.0032 48.9137 86.2774L48.9119 86.2785L39.5792 91.8197L61.7558 91.8201ZM72.3466 72.779L74.5549 82.3621L39.5785 91.8201C36.6857 93.5313 34.4052 94.0063 32.687 93.938C30.9696 93.8697 29.7723 93.2569 29.0471 92.7226C28.3202 92.187 27.3684 91.2209 26.7775 89.5997C26.1866 87.9783 25.9426 85.6625 26.696 82.4044L26.6962 82.4035L28.9045 72.7786L28.9053 72.7752C29.0153 72.2801 28.9275 71.6428 28.7672 71.09C28.6059 70.5337 28.3381 69.9494 27.9919 69.5765L27.9856 69.5697L27.979 69.5632L20.229 61.8132C18.2039 59.7881 17.2989 57.9228 16.9575 56.3717C16.6156 54.8186 16.831 53.5447 17.1019 52.6933C17.3723 51.8434 17.9347 50.6857 19.1119 49.6209C20.2875 48.5574 22.1028 47.5625 24.9177 47.0763C24.9181 47.0762 24.9185 47.0761 24.9188 47.0761L34.8747 45.4099L34.8791 45.4091C35.3447 45.3269 35.8771 45.0351 36.3093 44.7138C36.7363 44.3963 37.1675 43.9742 37.3672 43.5515L42.8636 32.5584C42.8638 32.5581 42.8639 32.5579 42.864 32.5576C44.1816 29.943 45.6933 28.4677 47.0745 27.6429C48.4574 26.8171 49.7401 26.6251 50.6255 26.6251C51.5138 26.6251 52.7963 26.808 54.1775 27.6279C55.5573 28.447 57.0688 29.9214 58.3866 32.557L63.8866 43.557L63.8864 43.5571L63.8926 43.5687C64.1105 43.9772 64.544 44.3948 64.973 44.7138C65.4003 45.0315 65.9217 45.3247 66.3667 45.4082L66.3667 45.4083L66.3763 45.4099L76.3346 47.0765L76.3355 47.0767C79.1488 47.5422 80.963 48.5366 82.1382 49.6045C83.3152 50.6741 83.8781 51.842 84.149 52.6933C84.4199 53.5447 84.6353 54.8186 84.2934 56.3717C83.952 57.9228 83.047 59.7881 81.0219 61.8132L73.272 69.5632C72.9126 69.9226 72.6434 70.5187 72.4835 71.0756C72.3234 71.6332 72.2358 72.2805 72.3457 72.7752L72.3466 72.779ZM64.4118 87.305L64.412 87.3051C65.6762 88.0551 66.7062 88.444 67.4795 88.6089C67.8653 88.6911 68.1976 88.7199 68.4691 88.7043C68.7086 88.6906 68.9871 88.6382 69.1878 88.4739C69.3792 88.3245 69.5065 88.0883 69.5928 87.8537C69.6873 87.5968 69.7583 87.2714 69.7951 86.8803C69.8689 86.0967 69.8093 85.011 69.488 83.5976L69.4877 83.5961L67.2794 74.0128L67.2788 74.0105C66.9691 72.694 67.062 71.1578 67.4859 69.6967C67.9097 68.2356 68.6535 66.8874 69.604 65.937L77.3541 58.187C78.1564 57.3846 78.6649 56.6489 78.9506 56.0192C79.2286 55.4064 79.3217 54.8333 79.1868 54.3947C79.0504 53.9515 78.6455 53.5341 78.0634 53.1975C77.4661 52.852 76.6231 52.555 75.4965 52.3814C75.4954 52.3812 75.4943 52.3811 75.4932 52.3809L65.5435 50.7156C65.5431 50.7155 65.5428 50.7155 65.5424 50.7154C63.0307 50.2833 60.3338 48.2986 59.1977 46.0265L53.6977 35.0265L53.6957 35.0225C53.1991 34.0509 52.67 33.3161 52.1645 32.8164C51.6809 32.3383 51.1417 32.0001 50.6255 32.0001C50.1154 32.0001 49.5778 32.3206 49.0885 32.7987C48.5805 33.2952 48.0503 34.0324 47.5532 35.0265L42.0533 46.0265C40.9173 48.2986 38.2202 50.2833 35.7085 50.7154C35.7081 50.7155 35.7078 50.7155 35.7074 50.7156L25.7513 52.3819L25.7486 52.3824C24.6258 52.5767 23.7857 52.873 23.1909 53.2112C22.6127 53.54 22.2022 53.9465 22.0643 54.3947C21.9293 54.8333 22.0224 55.4064 22.3004 56.0192C22.5861 56.6489 23.0946 57.3846 23.897 58.187L31.6469 65.937C32.5965 66.8866 33.3407 68.2446 33.7649 69.7118C34.1892 71.1795 34.2815 72.7149 33.9724 74.0089L33.9714 74.0132L31.7631 83.6383L31.7625 83.6409C31.4416 85.0741 31.382 86.1698 31.4558 86.9532C31.4926 87.344 31.5637 87.6686 31.6596 87.9227C31.7443 88.1472 31.877 88.3939 32.0921 88.5372C32.2916 88.679 32.5566 88.7321 32.8059 88.746C33.0815 88.7614 33.416 88.733 33.8026 88.6505C34.5769 88.4854 35.5969 88.0961 36.8405 87.3458C36.841 87.3455 36.8416 87.3452 36.8421 87.3448L46.1666 81.8084C47.5035 81.0627 49.0834 80.6668 50.6672 80.6668C52.2652 80.6668 53.8388 81.0273 55.0785 81.7633L64.4118 87.305Z" fill="#ED0C57" stroke="#ED0C57"/>
<path d="M25.6666 40.125C24.2344 40.125 23.0416 38.9322 23.0416 37.5V8.33334C23.0416 6.90114 24.2344 5.70834 25.6666 5.70834C27.0988 5.70834 28.2916 6.90114 28.2916 8.33334V37.5C28.2916 38.9322 27.0988 40.125 25.6666 40.125Z" fill="#ED0C57" stroke="#ED0C57"/>
<path d="M75.6666 40.625C73.9583 40.625 72.5416 39.2083 72.5416 37.5V8.33334C72.5416 6.625 73.9583 5.20834 75.6666 5.20834C77.375 5.20834 78.7916 6.625 78.7916 8.33334V37.5C78.7916 39.2083 77.375 40.625 75.6666 40.625Z" fill="#ED0C57"/>
<path d="M50.6666 19.7917C48.9583 19.7917 47.5416 18.375 47.5416 16.6667V8.33334C47.5416 6.625 48.9583 5.20834 50.6666 5.20834C52.375 5.20834 53.7916 6.625 53.7916 8.33334V16.6667C53.7916 18.375 52.375 19.7917 50.6666 19.7917Z" fill="#ED0C57"/>
</svg>
