<svg width="25" height="24" viewBox="0 0 25 24" fill="none" xmlns="http://www.w3.org/2000/svg">
<path d="M12.1665 21.75C6.5165 21.75 1.9165 17.15 1.9165 11.5C1.9165 5.85 6.5165 1.25 12.1665 1.25C17.8165 1.25 22.4165 5.85 22.4165 11.5C22.4165 17.15 17.8165 21.75 12.1665 21.75ZM12.1665 2.75C7.3365 2.75 3.4165 6.68 3.4165 11.5C3.4165 16.32 7.3365 20.25 12.1665 20.25C16.9965 20.25 20.9165 16.32 20.9165 11.5C20.9165 6.68 16.9965 2.75 12.1665 2.75Z" fill="#999999"/>
<path d="M22.6664 22.75C22.4764 22.75 22.2864 22.68 22.1364 22.53L20.1364 20.53C19.8464 20.24 19.8464 19.76 20.1364 19.47C20.4264 19.18 20.9064 19.18 21.1964 19.47L23.1964 21.47C23.4864 21.76 23.4864 22.24 23.1964 22.53C23.0464 22.68 22.8564 22.75 22.6664 22.75Z" fill="#999999"/>
</svg>
