<svg width="16" height="16" viewBox="0 0 16 16" fill="none" xmlns="http://www.w3.org/2000/svg">
<path d="M12.7337 4.49545L12.734 4.49486C13.2162 3.65102 12.9303 2.57115 12.0813 2.086L10.9316 1.42807C10.1587 0.971152 9.17821 1.25147 8.73022 2.00447L8.73019 2.00446L8.72721 2.0096L8.65387 2.13627L8.65387 2.13627L8.6528 2.13812C8.40613 2.56843 8.14883 2.67179 7.99242 2.67179C7.83523 2.67179 7.57592 2.56751 7.32584 2.13605L7.25346 2.01104C6.8171 1.24703 5.83086 0.973344 5.06158 1.42806L3.91185 2.086C3.9118 2.08603 3.91175 2.08606 3.9117 2.08609C3.91166 2.08611 3.91162 2.08613 3.91158 2.08615C3.06169 2.572 2.77762 3.65887 3.25913 4.50152L3.25911 4.50153L3.26136 4.50539C3.51053 4.93253 3.47121 5.20572 3.39363 5.34002C3.31564 5.47503 3.0968 5.64679 2.59992 5.64679C1.63216 5.64679 0.833252 6.4356 0.833252 7.41345V8.58679C0.833252 9.55455 1.62207 10.3535 2.59992 10.3535C3.09673 10.3535 3.3153 10.5251 3.39337 10.6606C3.47139 10.796 3.51062 11.0715 3.26066 11.5027L3.26066 11.5027L3.25913 11.5054C2.77694 12.3492 3.06284 13.4291 3.91185 13.9142L5.06159 14.5722C5.83454 15.0291 6.81497 14.7488 7.26296 13.9958L7.26299 13.9958L7.26597 13.9906L7.3393 13.864L7.34037 13.8621C7.58704 13.4318 7.84434 13.3285 8.00075 13.3285C8.15792 13.3285 8.41716 13.4327 8.66721 13.864C8.66725 13.864 8.66729 13.8641 8.66733 13.8642L8.74054 13.9906L8.74051 13.9907L8.74355 13.9958C9.19154 14.7488 10.172 15.0291 10.9449 14.5722L12.0947 13.9142C12.0947 13.9142 12.0948 13.9141 12.0949 13.9141C12.9431 13.4292 13.2307 12.342 12.7462 11.5033L12.7458 11.5027C12.4959 11.0715 12.5351 10.796 12.6131 10.6606C12.6912 10.5251 12.9098 10.3535 13.4066 10.3535C14.3743 10.3535 15.1733 9.56464 15.1733 8.58679V7.41345H15.1733L15.1732 7.40865C15.164 6.44558 14.3787 5.64679 13.3999 5.64679C12.9034 5.64679 12.6841 5.47526 12.6052 5.33885C12.5261 5.20227 12.4867 4.92625 12.7337 4.49545ZM7.99992 9.66679C7.08273 9.66679 6.33325 8.91731 6.33325 8.00012C6.33325 7.08293 7.08273 6.33345 7.99992 6.33345C8.91711 6.33345 9.66659 7.08293 9.66659 8.00012C9.66659 8.91731 8.91711 9.66679 7.99992 9.66679Z" fill="#00B709" stroke="#FAFAFA"/>
</svg>
