<svg width="100" height="100" viewBox="0 0 100 100" fill="none" xmlns="http://www.w3.org/2000/svg">
<path d="M77.2498 17.1667L54.3332 8.58337C51.9582 7.70837 48.0832 7.70837 45.7082 8.58337L22.7915 17.1667C18.3748 18.8334 14.7915 24 14.7915 28.7084V62.4584C14.7915 65.8334 16.9998 70.2917 19.7082 72.2917L42.6248 89.4167C46.6665 92.4584 53.2915 92.4584 57.3332 89.4167L80.2498 72.2917C82.9582 70.25 85.1665 65.8334 85.1665 62.4584V28.7084C85.2082 24 81.6248 18.8334 77.2498 17.1667ZM64.4998 40.5L46.5832 58.4167C45.9582 59.0417 45.1665 59.3334 44.3748 59.3334C43.5832 59.3334 42.7915 59.0417 42.1665 58.4167L35.4998 51.6667C34.2915 50.4584 34.2915 48.4584 35.4998 47.25C36.7082 46.0417 38.7082 46.0417 39.9165 47.25L44.4165 51.75L60.1248 36.0417C61.3332 34.8334 63.3332 34.8334 64.5415 36.0417C65.7498 37.25 65.7498 39.2917 64.4998 40.5Z" fill="#00B709"/>
</svg>
