<svg width="100" height="100" viewBox="0 0 100 100" fill="none" xmlns="http://www.w3.org/2000/svg">
<path d="M67.7082 93.75C71.7352 93.75 74.9998 90.4854 74.9998 86.4583C74.9998 82.4312 71.7352 79.1666 67.7082 79.1666C63.6811 79.1666 60.4165 82.4312 60.4165 86.4583C60.4165 90.4854 63.6811 93.75 67.7082 93.75Z" fill="#00B709"/>
<path d="M34.3752 93.75C38.4022 93.75 41.6668 90.4854 41.6668 86.4583C41.6668 82.4312 38.4022 79.1666 34.3752 79.1666C30.3481 79.1666 27.0835 82.4312 27.0835 86.4583C27.0835 90.4854 30.3481 93.75 34.3752 93.75Z" fill="#00B709"/>
<path d="M20.1668 16.4167L19.3335 26.625C19.1668 28.5834 20.7085 30.2084 22.6668 30.2084H86.4585C88.2085 30.2084 89.6668 28.875 89.7918 27.125C90.3335 19.75 84.7085 13.75 77.3335 13.75H26.1252C25.7085 11.9167 24.8752 10.1667 23.5835 8.70837C21.5002 6.50004 18.5835 5.20837 15.5835 5.20837H8.3335C6.62516 5.20837 5.2085 6.62504 5.2085 8.33337C5.2085 10.0417 6.62516 11.4584 8.3335 11.4584H15.5835C16.8752 11.4584 18.0835 12 18.9585 12.9167C19.8335 13.875 20.2502 15.125 20.1668 16.4167Z" fill="#00B709"/>
<path d="M85.4584 36.4584H21.5417C19.7917 36.4584 18.3751 37.7917 18.2084 39.5L16.7084 57.625C16.1251 64.75 21.7084 70.8334 28.8334 70.8334H75.1667C81.4167 70.8334 86.9167 65.7084 87.3751 59.4584L88.7501 40C88.9167 38.0834 87.4167 36.4584 85.4584 36.4584Z" fill="#00B709"/>
</svg>
