<svg width="36" height="36" viewBox="0 0 36 36" fill="none" xmlns="http://www.w3.org/2000/svg">
<path d="M11.9624 17.3216C15.7205 15.741 18.2265 14.699 19.4804 14.1956C23.0604 12.7581 23.8043 12.5084 24.2892 12.5001C24.3958 12.4984 24.6343 12.5239 24.7887 12.6449C24.9192 12.747 24.955 12.885 24.9722 12.9819C24.9894 13.0787 25.0108 13.2994 24.9938 13.4718C24.7998 15.4395 23.9603 20.2147 23.5332 22.4186C23.3525 23.3512 22.9967 23.6639 22.6522 23.6945C21.9036 23.761 21.3351 23.2169 20.6101 22.758C19.4755 22.0401 18.8345 21.5932 17.7332 20.8926C16.4604 20.0829 17.2855 19.6379 18.0108 18.9106C18.2006 18.7203 21.4991 15.8241 21.5629 15.5614C21.5709 15.5285 21.5783 15.4061 21.503 15.3414C21.4276 15.2767 21.3163 15.2988 21.236 15.3164C21.1222 15.3413 19.3097 16.4978 15.7984 18.7859C15.2839 19.1269 14.8179 19.2931 14.4004 19.2844C13.9401 19.2748 13.0547 19.0331 12.3965 18.8266C11.5892 18.5733 10.9475 18.4393 11.0034 18.0091C11.0325 17.785 11.3522 17.5558 11.9624 17.3216Z" fill="#999999"/>
<rect x="1" y="1" width="34" height="34" rx="17" stroke="#999999"/>
</svg>
